<?xml version="1.0" encoding="UTF-8" standalone="no"?>
<svg
   xmlns:osb="http://www.openswatchbook.org/uri/2009/osb"
   xmlns:dc="http://purl.org/dc/elements/1.1/"
   xmlns:cc="http://creativecommons.org/ns#"
   xmlns:rdf="http://www.w3.org/1999/02/22-rdf-syntax-ns#"
   xmlns:svg="http://www.w3.org/2000/svg"
   xmlns="http://www.w3.org/2000/svg"
   xmlns:sodipodi="http://sodipodi.sourceforge.net/DTD/sodipodi-0.dtd"
   xmlns:inkscape="http://www.inkscape.org/namespaces/inkscape"
   width="794.06628"
   height="534.43512"
   version="1.1"
   id="svg2997"
   sodipodi:version="0.32"
   inkscape:version="0.92.1 r15371"
   sodipodi:docname="orion_flag.svg"
   inkscape:output_extension="org.inkscape.output.svg.inkscape">
  <sodipodi:namedview
     inkscape:window-height="1001"
     inkscape:window-width="1920"
     inkscape:pageshadow="2"
     inkscape:pageopacity="0.0"
     guidetolerance="10.0"
     gridtolerance="10.0"
     objecttolerance="10.0"
     borderopacity="1.0"
     bordercolor="#666666"
     pagecolor="#ffffff"
     id="base"
     inkscape:zoom="0.97968464"
     inkscape:cx="169.18795"
     inkscape:cy="-133.9682"
     inkscape:window-x="-9"
     inkscape:window-y="-9"
     inkscape:current-layer="g4665"
     showgrid="false"
     inkscape:window-maximized="1" />
  <metadata
     id="metadata3076">
    <rdf:RDF>
      <cc:Work
         rdf:about="">
        <dc:format>image/svg+xml</dc:format>
        <dc:type
           rdf:resource="http://purl.org/dc/dcmitype/StillImage" />
      </cc:Work>
    </rdf:RDF>
  </metadata>
  <defs
     id="defs3074">
    <linearGradient
       id="linearGradient4530"
       osb:paint="solid">
      <stop
         style="stop-color:#ffb612;stop-opacity:1;"
         offset="0"
         id="stop4528" />
    </linearGradient>
    <clipPath
       clipPathUnits="userSpaceOnUse"
       id="clipPath4749">
      <rect
         style="opacity:0.18300003;fill:#ffb612;fill-opacity:1;stroke-width:0.25655514"
         id="rect4751"
         width="206.68605"
         height="139.84755"
         x="22.197166"
         y="31.383074" />
    </clipPath>
  </defs>
  <g
     id="g4665"
     transform="matrix(3.8471576,0,0,3.821555,0.34588085,321.61594)">
    <g
       id="g4717"
       clip-path="url(#clipPath4749)"
       transform="translate(-22.287072,-115.54147)"
       inkscape:export-xdpi="199.96323"
       inkscape:export-ydpi="199.96323">
      <rect
         style="opacity:1;fill:#0f204b;stroke:#ffffff;stroke-width:0"
         y="-0.18222313"
         x="-0.12148208"
         height="213.33333"
         width="228.72202"
         id="rect2999" />
      <path
         sodipodi:type="star"
         id="path3706"
         sodipodi:sides="5"
         sodipodi:cx="105.6511"
         sodipodi:cy="125.24979"
         sodipodi:r1="4.8412924"
         sodipodi:r2="1.888104"
         sodipodi:arg1="0.947597"
         sodipodi:arg2="1.5759155"
         inkscape:flatsided="false"
         inkscape:rounded="0"
         inkscape:randomized="0"
         d="m 108.47665,129.18099 -2.83522,-2.04312 -2.85598,2.01399 1.06699,-3.32782 -2.79796,-2.09385 3.49465,-0.0136 1.12675,-3.30806 1.09282,3.31942 3.49434,0.0494 -2.81926,2.0651 z"
         inkscape:transform-center-x="-0.0064791475"
         inkscape:transform-center-y="-0.375198"
         transform="matrix(0.8458319,0,0,0.82458993,24.22352,22.153472)"
         style="fill:#ffb612;fill-opacity:1" />
      <path
         sodipodi:type="star"
         id="path3706-8"
         sodipodi:sides="5"
         sodipodi:cx="105.6511"
         sodipodi:cy="125.24979"
         sodipodi:r1="4.8412924"
         sodipodi:r2="1.888104"
         sodipodi:arg1="0.947597"
         sodipodi:arg2="1.5759155"
         inkscape:flatsided="false"
         inkscape:rounded="0"
         inkscape:randomized="0"
         d="m 108.47665,129.18099 -2.83522,-2.04312 -2.85598,2.01399 1.06699,-3.32782 -2.79796,-2.09385 3.49465,-0.0136 1.12675,-3.30806 1.09282,3.31942 3.49434,0.0494 -2.81926,2.0651 z"
         inkscape:transform-center-x="-0.0039948925"
         inkscape:transform-center-y="-0.23342509"
         transform="matrix(0.52170355,0,0,0.51300718,62.947987,56.662376)"
         style="fill:#ffb612;fill-opacity:1" />
      <path
         sodipodi:type="star"
         id="path3706-8-6"
         sodipodi:sides="5"
         sodipodi:cx="105.6511"
         sodipodi:cy="125.24979"
         sodipodi:r1="4.8412924"
         sodipodi:r2="1.888104"
         sodipodi:arg1="0.947597"
         sodipodi:arg2="1.5759155"
         inkscape:flatsided="false"
         inkscape:rounded="0"
         inkscape:randomized="0"
         d="m 108.47665,129.18099 -2.83522,-2.04312 -2.85598,2.01399 1.06699,-3.32782 -2.79796,-2.09385 3.49465,-0.0136 1.12675,-3.30806 1.09282,3.31942 3.49434,0.0494 -2.81926,2.0651 z"
         inkscape:transform-center-x="-0.0057049887"
         inkscape:transform-center-y="-0.33318229"
         transform="matrix(0.74562616,0,0,0.73224757,43.558036,25.333567)"
         style="fill:#ffb612;fill-opacity:1" />
      <path
         sodipodi:type="star"
         id="path3706-8-5"
         sodipodi:sides="5"
         sodipodi:cx="105.6511"
         sodipodi:cy="125.24979"
         sodipodi:r1="4.8412924"
         sodipodi:r2="1.888104"
         sodipodi:arg1="0.947597"
         sodipodi:arg2="1.5759155"
         inkscape:flatsided="false"
         inkscape:rounded="0"
         inkscape:randomized="0"
         d="m 108.47665,129.18099 -2.83522,-2.04312 -2.85598,2.01399 1.06699,-3.32782 -2.79796,-2.09385 3.49465,-0.0136 1.12675,-3.30806 1.09282,3.31942 3.49434,0.0494 -2.81926,2.0651 z"
         inkscape:transform-center-x="-0.0088513087"
         inkscape:transform-center-y="-0.51477132"
         transform="matrix(1.1582808,0,0,1.1313271,17.226074,7.1051916)"
         style="fill:#ffb612;fill-opacity:1" />
      <path
         sodipodi:type="star"
         id="path3706-8-3"
         sodipodi:sides="5"
         sodipodi:cx="105.6511"
         sodipodi:cy="125.24979"
         sodipodi:r1="4.8412924"
         sodipodi:r2="1.888104"
         sodipodi:arg1="0.947597"
         sodipodi:arg2="1.5759155"
         inkscape:flatsided="false"
         inkscape:rounded="0"
         inkscape:randomized="0"
         d="m 108.47665,129.18099 -2.83522,-2.04312 -2.85598,2.01399 1.06699,-3.32782 -2.79796,-2.09385 3.49465,-0.0136 1.12675,-3.30806 1.09282,3.31942 3.49434,0.0494 -2.81926,2.0651 z"
         inkscape:transform-center-x="-0.0060048968"
         inkscape:transform-center-y="-0.34582887"
         transform="matrix(0.78441799,0,0,0.7600413,23.801494,58.889166)"
         style="fill:#ffb612;fill-opacity:1" />
      <path
         sodipodi:type="star"
         id="path3706-8-2"
         sodipodi:sides="5"
         sodipodi:cx="105.6511"
         sodipodi:cy="125.24979"
         sodipodi:r1="4.8412924"
         sodipodi:r2="1.888104"
         sodipodi:arg1="0.947597"
         sodipodi:arg2="1.5759155"
         inkscape:flatsided="false"
         inkscape:rounded="0"
         inkscape:randomized="0"
         d="m 108.47665,129.18099 -2.83522,-2.04312 -2.85598,2.01399 1.06699,-3.32782 -2.79796,-2.09385 3.49465,-0.0136 1.12675,-3.30806 1.09282,3.31942 3.49434,0.0494 -2.81926,2.0651 z"
         inkscape:transform-center-x="-0.0020793836"
         inkscape:transform-center-y="-0.11847072"
         transform="matrix(0.26995992,0,0,0.2603655,130.15127,47.215479)"
         style="fill:#ffb612;fill-opacity:1" />
      <path
         sodipodi:type="star"
         id="path3706-8-4"
         sodipodi:sides="5"
         sodipodi:cx="105.6511"
         sodipodi:cy="125.24979"
         sodipodi:r1="4.8412924"
         sodipodi:r2="1.888104"
         sodipodi:arg1="0.947597"
         sodipodi:arg2="1.5759155"
         inkscape:flatsided="false"
         inkscape:rounded="0"
         inkscape:randomized="0"
         d="m 108.47665,129.18099 -2.83522,-2.04312 -2.85598,2.01399 1.06699,-3.32782 -2.79796,-2.09385 3.49465,-0.0136 1.12675,-3.30806 1.09282,3.31942 3.49434,0.0494 -2.81926,2.0651 z"
         inkscape:transform-center-x="-0.0025159563"
         inkscape:transform-center-y="-0.14580628"
         transform="matrix(0.32974903,0,0,0.32044493,128.18064,44.31937)"
         style="fill:#ffb612;fill-opacity:1" />
      <path
         sodipodi:type="star"
         id="path3706-8-30"
         sodipodi:sides="5"
         sodipodi:cx="105.6511"
         sodipodi:cy="125.24979"
         sodipodi:r1="4.8412924"
         sodipodi:r2="1.888104"
         sodipodi:arg1="0.947597"
         sodipodi:arg2="1.5759155"
         inkscape:flatsided="false"
         inkscape:rounded="0"
         inkscape:randomized="0"
         d="m 108.47665,129.18099 -2.83522,-2.04312 -2.85598,2.01399 1.06699,-3.32782 -2.79796,-2.09385 3.49465,-0.0136 1.12675,-3.30806 1.09282,3.31942 3.49434,0.0494 -2.81926,2.0651 z"
         inkscape:transform-center-x="-0.0042997034"
         inkscape:transform-center-y="-0.24814476"
         transform="matrix(0.55946509,0,0,0.54535764,104.87989,23.508411)"
         style="fill:#ffb612;fill-opacity:1" />
      <path
         sodipodi:type="star"
         id="path3706-8-0"
         sodipodi:sides="5"
         sodipodi:cx="105.6511"
         sodipodi:cy="125.24979"
         sodipodi:r1="4.8412924"
         sodipodi:r2="1.888104"
         sodipodi:arg1="0.947597"
         sodipodi:arg2="1.5759155"
         inkscape:flatsided="false"
         inkscape:rounded="0"
         inkscape:randomized="0"
         d="m 108.47665,129.18099 -2.83522,-2.04312 -2.85598,2.01399 1.06699,-3.32782 -2.79796,-2.09385 3.49465,-0.0136 1.12675,-3.30806 1.09282,3.31942 3.49434,0.0494 -2.81926,2.0651 z"
         inkscape:transform-center-x="-0.0035394175"
         inkscape:transform-center-y="-0.20468642"
         transform="matrix(0.46348783,0,0,0.44984676,113.76744,40.522415)"
         style="fill:#ffb612;fill-opacity:1" />
      <path
         sodipodi:type="star"
         id="path3706-8-9"
         sodipodi:sides="5"
         sodipodi:cx="105.6511"
         sodipodi:cy="125.24979"
         sodipodi:r1="4.8412924"
         sodipodi:r2="1.888104"
         sodipodi:arg1="0.947597"
         sodipodi:arg2="1.5759155"
         inkscape:flatsided="false"
         inkscape:rounded="0"
         inkscape:randomized="0"
         d="m 108.47665,129.18099 -2.83522,-2.04312 -2.85598,2.01399 1.06699,-3.32782 -2.79796,-2.09385 3.49465,-0.0136 1.12675,-3.30806 1.09282,3.31942 3.49434,0.0494 -2.81926,2.0651 z"
         inkscape:transform-center-x="-0.0034684597"
         inkscape:transform-center-y="-0.20118374"
         transform="matrix(0.45174487,0,0,0.44214941,112.16646,53.354472)"
         style="fill:#ffb612;fill-opacity:1" />
      <path
         sodipodi:type="star"
         id="path3706-8-90"
         sodipodi:sides="5"
         sodipodi:cx="105.6511"
         sodipodi:cy="125.24979"
         sodipodi:r1="4.8412924"
         sodipodi:r2="1.888104"
         sodipodi:arg1="0.947597"
         sodipodi:arg2="1.5759155"
         inkscape:flatsided="false"
         inkscape:rounded="0"
         inkscape:randomized="0"
         d="m 108.47665,129.18099 -2.83522,-2.04312 -2.85598,2.01399 1.06699,-3.32782 -2.79796,-2.09385 3.49465,-0.0136 1.12675,-3.30806 1.09282,3.31942 3.49434,0.0494 -2.81926,2.0651 z"
         inkscape:transform-center-x="-0.0023114451"
         inkscape:transform-center-y="-0.13562692"
         transform="matrix(0.29976567,0,0,0.29807194,123.97033,74.079965)"
         style="fill:#ffb612;fill-opacity:1" />
      <path
         sodipodi:type="star"
         id="path3706-8-44"
         sodipodi:sides="5"
         sodipodi:cx="105.6511"
         sodipodi:cy="125.24979"
         sodipodi:r1="4.8412924"
         sodipodi:r2="1.888104"
         sodipodi:arg1="0.947597"
         sodipodi:arg2="1.5759155"
         inkscape:flatsided="false"
         inkscape:rounded="0"
         inkscape:randomized="0"
         d="m 108.47665,129.18099 -2.83522,-2.04312 -2.85598,2.01399 1.06699,-3.32782 -2.79796,-2.09385 3.49465,-0.0136 1.12675,-3.30806 1.09282,3.31942 3.49434,0.0494 -2.81926,2.0651 z"
         inkscape:transform-center-x="-0.0084341004"
         inkscape:transform-center-y="-0.49531763"
         transform="matrix(1.1000779,0,0,1.088571,-16.907343,-45.647418)"
         style="fill:#ffb612;fill-opacity:1" />
      <path
         sodipodi:type="star"
         id="path3706-8-56"
         sodipodi:sides="5"
         sodipodi:cx="105.6511"
         sodipodi:cy="125.24979"
         sodipodi:r1="4.8412924"
         sodipodi:r2="1.888104"
         sodipodi:arg1="0.947597"
         sodipodi:arg2="1.5759155"
         inkscape:flatsided="false"
         inkscape:rounded="0"
         inkscape:randomized="0"
         d="m 108.47665,129.18099 -2.83522,-2.04312 -2.85598,2.01399 1.06699,-3.32782 -2.79796,-2.09385 3.49465,-0.0136 1.12675,-3.30806 1.09282,3.31942 3.49434,0.0494 -2.81926,2.0651 z"
         inkscape:transform-center-x="-0.0066431747"
         inkscape:transform-center-y="-0.38971339"
         transform="matrix(0.86778,0,0,0.85648883,37.431991,-12.735077)"
         style="fill:#ffb612;fill-opacity:1" />
      <path
         sodipodi:type="star"
         id="path3706-8-46"
         sodipodi:sides="5"
         sodipodi:cx="105.6511"
         sodipodi:cy="125.24979"
         sodipodi:r1="4.8412924"
         sodipodi:r2="1.888104"
         sodipodi:arg1="0.947597"
         sodipodi:arg2="1.5759155"
         inkscape:flatsided="false"
         inkscape:rounded="0"
         inkscape:randomized="0"
         d="m 108.47665,129.18099 -2.83522,-2.04312 -2.85598,2.01399 1.06699,-3.32782 -2.79796,-2.09385 3.49465,-0.0136 1.12675,-3.30806 1.09282,3.31942 3.49434,0.0494 -2.81926,2.0651 z"
         inkscape:transform-center-x="-0.0039917524"
         inkscape:transform-center-y="-0.23342509"
         transform="matrix(0.52170355,0,0,0.51300718,64.022667,16.814685)"
         style="fill:#ffb612;fill-opacity:1" />
      <path
         sodipodi:type="star"
         id="path3706-8-8"
         sodipodi:sides="5"
         sodipodi:cx="105.6511"
         sodipodi:cy="125.24979"
         sodipodi:r1="4.8412924"
         sodipodi:r2="1.888104"
         sodipodi:arg1="0.947597"
         sodipodi:arg2="1.5759155"
         inkscape:flatsided="false"
         inkscape:rounded="0"
         inkscape:randomized="0"
         d="m 108.47665,129.18099 -2.83522,-2.04312 -2.85598,2.01399 1.06699,-3.32782 -2.79796,-2.09385 3.49465,-0.0136 1.12675,-3.30806 1.09282,3.31942 3.49434,0.0494 -2.81926,2.0651 z"
         inkscape:transform-center-x="-0.0028684285"
         inkscape:transform-center-y="-0.16633022"
         transform="matrix(0.37449315,0,0,0.36554881,52.756403,36.223015)"
         style="fill:#ffb612;fill-opacity:1" />
      <path
         sodipodi:type="star"
         id="path3706-8-38"
         sodipodi:sides="5"
         sodipodi:cx="105.6511"
         sodipodi:cy="125.24979"
         sodipodi:r1="4.8412924"
         sodipodi:r2="1.888104"
         sodipodi:arg1="0.947597"
         sodipodi:arg2="1.5759155"
         inkscape:flatsided="false"
         inkscape:rounded="0"
         inkscape:randomized="0"
         d="m 108.47665,129.18099 -2.83522,-2.04312 -2.85598,2.01399 1.06699,-3.32782 -2.79796,-2.09385 3.49465,-0.0136 1.12675,-3.30806 1.09282,3.31942 3.49434,0.0494 -2.81926,2.0651 z"
         inkscape:transform-center-x="-0.0024036646"
         inkscape:transform-center-y="-0.1398336"
         transform="matrix(0.31409137,0,0,0.30731627,54.44689,24.419802)"
         style="fill:#ffb612;fill-opacity:1" />
      <path
         sodipodi:type="star"
         id="path3706-8-42"
         sodipodi:sides="5"
         sodipodi:cx="105.6511"
         sodipodi:cy="125.24979"
         sodipodi:r1="4.8412924"
         sodipodi:r2="1.888104"
         sodipodi:arg1="0.947597"
         sodipodi:arg2="1.5759155"
         inkscape:flatsided="false"
         inkscape:rounded="0"
         inkscape:randomized="0"
         d="m 108.47665,129.18099 -2.83522,-2.04312 -2.85598,2.01399 1.06699,-3.32782 -2.79796,-2.09385 3.49465,-0.0136 1.12675,-3.30806 1.09282,3.31942 3.49434,0.0494 -2.81926,2.0651 z"
         inkscape:transform-center-x="-0.0023641839"
         inkscape:transform-center-y="-0.1376306"
         transform="matrix(0.30914823,0,0,0.30247649,50.678984,27.040475)"
         style="fill:#ffb612;fill-opacity:1" />
      <path
         sodipodi:type="star"
         id="path3706-8-7"
         sodipodi:sides="5"
         sodipodi:cx="105.6511"
         sodipodi:cy="125.24979"
         sodipodi:r1="4.8412924"
         sodipodi:r2="1.888104"
         sodipodi:arg1="0.947597"
         sodipodi:arg2="1.5759155"
         inkscape:flatsided="false"
         inkscape:rounded="0"
         inkscape:randomized="0"
         d="m 108.47665,129.18099 -2.83522,-2.04312 -2.85598,2.01399 1.06699,-3.32782 -2.79796,-2.09385 3.49465,-0.0136 1.12675,-3.30806 1.09282,3.31942 3.49434,0.0494 -2.81926,2.0651 z"
         inkscape:transform-center-x="-0.0020688415"
         inkscape:transform-center-y="-0.11973696"
         transform="matrix(0.27019013,0,0,0.26314917,63.160538,10.107986)"
         style="fill:#ffb612;fill-opacity:1" />
      <path
         sodipodi:type="star"
         id="path3706-8-382"
         sodipodi:sides="5"
         sodipodi:cx="105.6511"
         sodipodi:cy="125.24979"
         sodipodi:r1="4.8412924"
         sodipodi:r2="1.888104"
         sodipodi:arg1="0.947597"
         sodipodi:arg2="1.5759155"
         inkscape:flatsided="false"
         inkscape:rounded="0"
         inkscape:randomized="0"
         d="m 108.47665,129.18099 -2.83522,-2.04312 -2.85598,2.01399 1.06699,-3.32782 -2.79796,-2.09385 3.49465,-0.0136 1.12675,-3.30806 1.09282,3.31942 3.49434,0.0494 -2.81926,2.0651 z"
         inkscape:transform-center-x="-0.0012081567"
         inkscape:transform-center-y="-0.069997993"
         transform="matrix(0.15731582,0,0,0.1538363,64.590911,27.211329)"
         style="fill:#ffb612;fill-opacity:1" />
      <rect
         y="31.383074"
         x="-0.62054974"
         height="152.28094"
         width="214.1841"
         id="rect4693"
         style="opacity:0;fill:#ffb612;fill-opacity:1;stroke-width:0.26080143" />
    </g>
  </g>
  <rect
     style="opacity:0;fill:#ffb612;fill-opacity:1"
     id="rect4669"
     width="824"
     height="581.95001"
     x="-2.041472"
     y="441.5481" />
</svg>
