<?xml version="1.0" encoding="UTF-8" standalone="no"?>
<!-- Created with Inkscape (http://www.inkscape.org/) -->

<svg
   xmlns:dc="http://purl.org/dc/elements/1.1/"
   xmlns:cc="http://creativecommons.org/ns#"
   xmlns:rdf="http://www.w3.org/1999/02/22-rdf-syntax-ns#"
   xmlns:svg="http://www.w3.org/2000/svg"
   xmlns="http://www.w3.org/2000/svg"
   xmlns:sodipodi="http://sodipodi.sourceforge.net/DTD/sodipodi-0.dtd"
   xmlns:inkscape="http://www.inkscape.org/namespaces/inkscape"
   width="285.82126mm"
   height="192.368mm"
   viewBox="0 0 285.82126 192.368"
   version="1.1"
   id="svg8357"
   inkscape:version="0.92.1 r15371"
   sodipodi:docname="scorpio_flag.svg">
  <defs
     id="defs8351" />
  <sodipodi:namedview
     id="base"
     pagecolor="#ffffff"
     bordercolor="#666666"
     borderopacity="1.0"
     inkscape:pageopacity="0.0"
     inkscape:pageshadow="2"
     inkscape:zoom="0.91"
     inkscape:cx="361.72365"
     inkscape:cy="269.40009"
     inkscape:document-units="mm"
     inkscape:current-layer="layer1"
     showgrid="false"
     inkscape:window-width="1920"
     inkscape:window-height="1001"
     inkscape:window-x="-9"
     inkscape:window-y="-9"
     inkscape:window-maximized="1" />
  <metadata
     id="metadata8354">
    <rdf:RDF>
      <cc:Work
         rdf:about="">
        <dc:format>image/svg+xml</dc:format>
        <dc:type
           rdf:resource="http://purl.org/dc/dcmitype/StillImage" />
        <dc:title></dc:title>
      </cc:Work>
    </rdf:RDF>
  </metadata>
  <g
     inkscape:label="Layer 1"
     inkscape:groupmode="layer"
     id="layer1"
     transform="translate(-2.4414062e-7,-104.632)">
    <g
       id="g9057"
       transform="translate(48.446625,116.06435)">
      <rect
         y="-11.432347"
         x="-48.446625"
         height="192.368"
         width="285.82126"
         id="rect9035"
         style="opacity:1;fill:#0f204b;fill-opacity:1;stroke-width:0.24590747" />
      <path
         transform="matrix(0.62146999,0,0,0.61147388,5.1350632,44.951702)"
         inkscape:transform-center-y="-0.41465222"
         inkscape:transform-center-x="0.02568552"
         d="m 25.276613,129.2105 -4.472058,-3.06945 -4.359971,3.22668 1.537276,-5.20169 -4.416058,-3.14948 5.422146,-0.14538 1.630698,-5.17316 1.813794,5.11184 5.423885,-0.0477 -4.30116,3.30467 z"
         inkscape:randomized="0"
         inkscape:rounded="0"
         inkscape:flatsided="false"
         sodipodi:arg2="1.552996"
         sodipodi:arg1="0.92467742"
         sodipodi:r2="2.9305239"
         sodipodi:r1="7.514163"
         sodipodi:cy="123.21099"
         sodipodi:cx="20.752394"
         sodipodi:sides="5"
         id="path8913"
         style="opacity:1;fill:#ffb612;fill-opacity:1;stroke-width:0.26458332"
         sodipodi:type="star" />
      <path
         transform="matrix(0.73847018,0,0,0.74098259,21.979038,25.334877)"
         inkscape:transform-center-y="-0.50247444"
         inkscape:transform-center-x="0.030521576"
         d="m 25.276613,129.2105 -4.472058,-3.06945 -4.359971,3.22668 1.537276,-5.20169 -4.416058,-3.14948 5.422146,-0.14538 1.630698,-5.17316 1.813794,5.11184 5.423885,-0.0477 -4.30116,3.30467 z"
         inkscape:randomized="0"
         inkscape:rounded="0"
         inkscape:flatsided="false"
         sodipodi:arg2="1.552996"
         sodipodi:arg1="0.92467742"
         sodipodi:r2="2.9305239"
         sodipodi:r1="7.514163"
         sodipodi:cy="123.21099"
         sodipodi:cx="20.752394"
         sodipodi:sides="5"
         id="path8913-9"
         style="opacity:1;fill:#ffb612;fill-opacity:1;stroke-width:0.26458332"
         sodipodi:type="star" />
      <path
         transform="matrix(0.68341128,0,0,0.68342316,30.744182,34.943379)"
         inkscape:transform-center-y="-0.4634423"
         inkscape:transform-center-x="0.028245626"
         d="m 25.276613,129.2105 -4.472058,-3.06945 -4.359971,3.22668 1.537276,-5.20169 -4.416058,-3.14948 5.422146,-0.14538 1.630698,-5.17316 1.813794,5.11184 5.423885,-0.0477 -4.30116,3.30467 z"
         inkscape:randomized="0"
         inkscape:rounded="0"
         inkscape:flatsided="false"
         sodipodi:arg2="1.552996"
         sodipodi:arg1="0.92467742"
         sodipodi:r2="2.9305239"
         sodipodi:r1="7.514163"
         sodipodi:cy="123.21099"
         sodipodi:cx="20.752394"
         sodipodi:sides="5"
         id="path8913-6"
         style="opacity:1;fill:#ffb612;fill-opacity:1;stroke-width:0.26458332"
         sodipodi:type="star" />
      <path
         transform="matrix(0.67652891,0,0,0.70500794,16.871077,43.561492)"
         inkscape:transform-center-y="-0.47808012"
         inkscape:transform-center-x="0.02796113"
         d="m 25.276613,129.2105 -4.472058,-3.06945 -4.359971,3.22668 1.537276,-5.20169 -4.416058,-3.14948 5.422146,-0.14538 1.630698,-5.17316 1.813794,5.11184 5.423885,-0.0477 -4.30116,3.30467 z"
         inkscape:randomized="0"
         inkscape:rounded="0"
         inkscape:flatsided="false"
         sodipodi:arg2="1.552996"
         sodipodi:arg1="0.92467742"
         sodipodi:r2="2.9305239"
         sodipodi:r1="7.514163"
         sodipodi:cy="123.21099"
         sodipodi:cx="20.752394"
         sodipodi:sides="5"
         id="path8913-65"
         style="opacity:1;fill:#ffb612;fill-opacity:1;stroke-width:0.26458332"
         sodipodi:type="star" />
      <path
         transform="matrix(0.62147,0,0,0.61147388,12.405309,63.726692)"
         inkscape:transform-center-y="-0.41465222"
         inkscape:transform-center-x="0.02568552"
         d="m 25.276613,129.2105 -4.472058,-3.06945 -4.359971,3.22668 1.537276,-5.20169 -4.416058,-3.14948 5.422146,-0.14538 1.630698,-5.17316 1.813794,5.11184 5.423885,-0.0477 -4.30116,3.30467 z"
         inkscape:randomized="0"
         inkscape:rounded="0"
         inkscape:flatsided="false"
         sodipodi:arg2="1.552996"
         sodipodi:arg1="0.92467742"
         sodipodi:r2="2.9305239"
         sodipodi:r1="7.514163"
         sodipodi:cy="123.21099"
         sodipodi:cx="20.752394"
         sodipodi:sides="5"
         id="path8913-4"
         style="opacity:1;fill:#ffb612;fill-opacity:1;stroke-width:0.26458332"
         sodipodi:type="star" />
      <path
         transform="matrix(0.74535255,0,0,0.72659272,23.412225,64.865498)"
         inkscape:transform-center-y="-0.49271822"
         inkscape:transform-center-x="0.03080647"
         d="m 25.276613,129.2105 -4.472058,-3.06945 -4.359971,3.22668 1.537276,-5.20169 -4.416058,-3.14948 5.422146,-0.14538 1.630698,-5.17316 1.813794,5.11184 5.423885,-0.0477 -4.30116,3.30467 z"
         inkscape:randomized="0"
         inkscape:rounded="0"
         inkscape:flatsided="false"
         sodipodi:arg2="1.552996"
         sodipodi:arg1="0.92467742"
         sodipodi:r2="2.9305239"
         sodipodi:r1="7.514163"
         sodipodi:cy="123.21099"
         sodipodi:cx="20.752394"
         sodipodi:sides="5"
         id="path8913-62"
         style="opacity:1;fill:#ffb612;fill-opacity:1;stroke-width:0.26458332"
         sodipodi:type="star" />
      <path
         transform="matrix(0.62147,0,0,0.61147388,57.549144,78.184522)"
         inkscape:transform-center-y="-0.41465222"
         inkscape:transform-center-x="0.02568552"
         d="m 25.276613,129.2105 -4.472058,-3.06945 -4.359971,3.22668 1.537276,-5.20169 -4.416058,-3.14948 5.422146,-0.14538 1.630698,-5.17316 1.813794,5.11184 5.423885,-0.0477 -4.30116,3.30467 z"
         inkscape:randomized="0"
         inkscape:rounded="0"
         inkscape:flatsided="false"
         sodipodi:arg2="1.552996"
         sodipodi:arg1="0.92467742"
         sodipodi:r2="2.9305239"
         sodipodi:r1="7.514163"
         sodipodi:cy="123.21099"
         sodipodi:cx="20.752394"
         sodipodi:sides="5"
         id="path8913-7"
         style="opacity:1;fill:#ffb612;fill-opacity:1;stroke-width:0.26458332"
         sodipodi:type="star" />
      <path
         transform="matrix(0.51135217,0,0,0.51074489,80.090433,84.724332)"
         inkscape:transform-center-y="-0.34634596"
         inkscape:transform-center-x="0.021134081"
         d="m 25.276613,129.2105 -4.472058,-3.06945 -4.359971,3.22668 1.537276,-5.20169 -4.416058,-3.14948 5.422146,-0.14538 1.630698,-5.17316 1.813794,5.11184 5.423885,-0.0477 -4.30116,3.30467 z"
         inkscape:randomized="0"
         inkscape:rounded="0"
         inkscape:flatsided="false"
         sodipodi:arg2="1.552996"
         sodipodi:arg1="0.92467742"
         sodipodi:r2="2.9305239"
         sodipodi:r1="7.514163"
         sodipodi:cy="123.21099"
         sodipodi:cx="20.752394"
         sodipodi:sides="5"
         id="path8913-2"
         style="opacity:1;fill:#ffb612;fill-opacity:1;stroke-width:0.26458332"
         sodipodi:type="star" />
      <path
         transform="matrix(0.62147,0,0,0.61147388,81.448821,46.12158)"
         inkscape:transform-center-y="-0.41465222"
         inkscape:transform-center-x="0.02568552"
         d="m 25.276613,129.2105 -4.472058,-3.06945 -4.359971,3.22668 1.537276,-5.20169 -4.416058,-3.14948 5.422146,-0.14538 1.630698,-5.17316 1.813794,5.11184 5.423885,-0.0477 -4.30116,3.30467 z"
         inkscape:randomized="0"
         inkscape:rounded="0"
         inkscape:flatsided="false"
         sodipodi:arg2="1.552996"
         sodipodi:arg1="0.92467742"
         sodipodi:r2="2.9305239"
         sodipodi:r1="7.514163"
         sodipodi:cy="123.21099"
         sodipodi:cx="20.752394"
         sodipodi:sides="5"
         id="path8913-40"
         style="opacity:1;fill:#ffb612;fill-opacity:1;stroke-width:0.26458332"
         sodipodi:type="star" />
      <path
         transform="matrix(0.72470546,0,0,0.72659273,81.17168,9.3369093)"
         inkscape:transform-center-y="-0.49271641"
         inkscape:transform-center-x="0.029952476"
         d="m 25.276613,129.2105 -4.472058,-3.06945 -4.359971,3.22668 1.537276,-5.20169 -4.416058,-3.14948 5.422146,-0.14538 1.630698,-5.17316 1.813794,5.11184 5.423885,-0.0477 -4.30116,3.30467 z"
         inkscape:randomized="0"
         inkscape:rounded="0"
         inkscape:flatsided="false"
         sodipodi:arg2="1.552996"
         sodipodi:arg1="0.92467742"
         sodipodi:r2="2.9305239"
         sodipodi:r1="7.514163"
         sodipodi:cy="123.21099"
         sodipodi:cx="20.752394"
         sodipodi:sides="5"
         id="path8913-29"
         style="opacity:1;fill:#ffb612;fill-opacity:1;stroke-width:0.26458332"
         sodipodi:type="star" />
      <path
         transform="matrix(0.62147,0,0,0.61147388,104.46333,-14.070199)"
         inkscape:transform-center-y="-0.41465222"
         inkscape:transform-center-x="0.02568552"
         d="m 25.276613,129.2105 -4.472058,-3.06945 -4.359971,3.22668 1.537276,-5.20169 -4.416058,-3.14948 5.422146,-0.14538 1.630698,-5.17316 1.813794,5.11184 5.423885,-0.0477 -4.30116,3.30467 z"
         inkscape:randomized="0"
         inkscape:rounded="0"
         inkscape:flatsided="false"
         sodipodi:arg2="1.552996"
         sodipodi:arg1="0.92467742"
         sodipodi:r2="2.9305239"
         sodipodi:r1="7.514163"
         sodipodi:cy="123.21099"
         sodipodi:cx="20.752394"
         sodipodi:sides="5"
         id="path8913-622"
         style="opacity:1;fill:#ffb612;fill-opacity:1;stroke-width:0.26458332"
         sodipodi:type="star" />
      <path
         transform="matrix(0.62147,0,0,0.61147388,126.49431,-28.724733)"
         inkscape:transform-center-y="-0.41465222"
         inkscape:transform-center-x="0.02568552"
         d="m 25.276613,129.2105 -4.472058,-3.06945 -4.359971,3.22668 1.537276,-5.20169 -4.416058,-3.14948 5.422146,-0.14538 1.630698,-5.17316 1.813794,5.11184 5.423885,-0.0477 -4.30116,3.30467 z"
         inkscape:randomized="0"
         inkscape:rounded="0"
         inkscape:flatsided="false"
         sodipodi:arg2="1.552996"
         sodipodi:arg1="0.92467742"
         sodipodi:r2="2.9305239"
         sodipodi:r1="7.514163"
         sodipodi:cy="123.21099"
         sodipodi:cx="20.752394"
         sodipodi:sides="5"
         id="path8913-1"
         style="opacity:1;fill:#ffb612;fill-opacity:1;stroke-width:0.26458332"
         sodipodi:type="star" />
      <path
         transform="matrix(0.84776463,0,0,0.88575397,109.16332,-57.027988)"
         inkscape:transform-center-y="-0.60064769"
         inkscape:transform-center-x="0.035030415"
         d="m 25.276613,129.2105 -4.472058,-3.06945 -4.359971,3.22668 1.537276,-5.20169 -4.416058,-3.14948 5.422146,-0.14538 1.630698,-5.17316 1.813794,5.11184 5.423885,-0.0477 -4.30116,3.30467 z"
         inkscape:randomized="0"
         inkscape:rounded="0"
         inkscape:flatsided="false"
         sodipodi:arg2="1.552996"
         sodipodi:arg1="0.92467742"
         sodipodi:r2="2.9305239"
         sodipodi:r1="7.514163"
         sodipodi:cy="123.21099"
         sodipodi:cx="20.752394"
         sodipodi:sides="5"
         id="path8913-5"
         style="opacity:1;fill:#ffb612;fill-opacity:1;stroke-width:0.26458332"
         sodipodi:type="star" />
      <path
         transform="matrix(0.67652891,0,0,0.68342316,158.30209,-30.951263)"
         inkscape:transform-center-y="-0.46344278"
         inkscape:transform-center-x="0.027962871"
         d="m 25.276613,129.2105 -4.472058,-3.06945 -4.359971,3.22668 1.537276,-5.20169 -4.416058,-3.14948 5.422146,-0.14538 1.630698,-5.17316 1.813794,5.11184 5.423885,-0.0477 -4.30116,3.30467 z"
         inkscape:randomized="0"
         inkscape:rounded="0"
         inkscape:flatsided="false"
         sodipodi:arg2="1.552996"
         sodipodi:arg1="0.92467742"
         sodipodi:r2="2.9305239"
         sodipodi:r1="7.514163"
         sodipodi:cy="123.21099"
         sodipodi:cx="20.752394"
         sodipodi:sides="5"
         id="path8913-0"
         style="opacity:1;fill:#ffb612;fill-opacity:1;stroke-width:0.26458332"
         sodipodi:type="star" />
      <path
         transform="matrix(0.73158782,0,0,0.71220287,156.96506,-55.721881)"
         inkscape:transform-center-y="-0.48295898"
         inkscape:transform-center-x="0.030240222"
         d="m 25.276613,129.2105 -4.472058,-3.06945 -4.359971,3.22668 1.537276,-5.20169 -4.416058,-3.14948 5.422146,-0.14538 1.630698,-5.17316 1.813794,5.11184 5.423885,-0.0477 -4.30116,3.30467 z"
         inkscape:randomized="0"
         inkscape:rounded="0"
         inkscape:flatsided="false"
         sodipodi:arg2="1.552996"
         sodipodi:arg1="0.92467742"
         sodipodi:r2="2.9305239"
         sodipodi:r1="7.514163"
         sodipodi:cy="123.21099"
         sodipodi:cx="20.752394"
         sodipodi:sides="5"
         id="path8913-17"
         style="opacity:1;fill:#ffb612;fill-opacity:1;stroke-width:0.26458332"
         sodipodi:type="star" />
      <path
         transform="matrix(0.48382271,0,0,0.48196518,162.3916,13.011069)"
         inkscape:transform-center-y="-0.32682937"
         inkscape:transform-center-x="0.019993078"
         d="m 25.276613,129.2105 -4.472058,-3.06945 -4.359971,3.22668 1.537276,-5.20169 -4.416058,-3.14948 5.422146,-0.14538 1.630698,-5.17316 1.813794,5.11184 5.423885,-0.0477 -4.30116,3.30467 z"
         inkscape:randomized="0"
         inkscape:rounded="0"
         inkscape:flatsided="false"
         sodipodi:arg2="1.552996"
         sodipodi:arg1="0.92467742"
         sodipodi:r2="2.9305239"
         sodipodi:r1="7.514163"
         sodipodi:cy="123.21099"
         sodipodi:cx="20.752394"
         sodipodi:sides="5"
         id="path8913-98"
         style="opacity:1;fill:#ffb612;fill-opacity:1;stroke-width:0.26458332"
         sodipodi:type="star" />
      <path
         transform="matrix(0.697176,0,0,0.68342316,152.33441,-70.595342)"
         inkscape:transform-center-y="-0.4634423"
         inkscape:transform-center-x="0.028811904"
         d="m 25.276613,129.2105 -4.472058,-3.06945 -4.359971,3.22668 1.537276,-5.20169 -4.416058,-3.14948 5.422146,-0.14538 1.630698,-5.17316 1.813794,5.11184 5.423885,-0.0477 -4.30116,3.30467 z"
         inkscape:randomized="0"
         inkscape:rounded="0"
         inkscape:flatsided="false"
         sodipodi:arg2="1.552996"
         sodipodi:arg1="0.92467742"
         sodipodi:r2="2.9305239"
         sodipodi:r1="7.514163"
         sodipodi:cy="123.21099"
         sodipodi:cx="20.752394"
         sodipodi:sides="5"
         id="path8913-68"
         style="opacity:1;fill:#ffb612;fill-opacity:1;stroke-width:0.26458332"
         sodipodi:type="star" />
      <path
         transform="matrix(0.48382272,0,0,0.48196519,139.57379,-52.196694)"
         inkscape:transform-center-y="-0.32682937"
         inkscape:transform-center-x="0.019993078"
         d="m 25.276613,129.2105 -4.472058,-3.06945 -4.359971,3.22668 1.537276,-5.20169 -4.416058,-3.14948 5.422146,-0.14538 1.630698,-5.17316 1.813794,5.11184 5.423885,-0.0477 -4.30116,3.30467 z"
         inkscape:randomized="0"
         inkscape:rounded="0"
         inkscape:flatsided="false"
         sodipodi:arg2="1.552996"
         sodipodi:arg1="0.92467742"
         sodipodi:r2="2.9305239"
         sodipodi:r1="7.514163"
         sodipodi:cy="123.21099"
         sodipodi:cx="20.752394"
         sodipodi:sides="5"
         id="path8913-98-1"
         style="opacity:1;fill:#ffb612;fill-opacity:1;stroke-width:0.26458332"
         sodipodi:type="star" />
    </g>
  </g>
</svg>
